<?xml version="1.0" encoding="utf-8"?>
<!-- Generator: Adobe Illustrator 27.9.0, SVG Export Plug-In . SVG Version: 6.00 Build 0)  -->
<svg version="1.1"
	 id="Layer_1" xmlns:mapsvg="http://mapsvg.com" xmlns:rdf="http://www.w3.org/1999/02/22-rdf-syntax-ns#" xmlns:svg="http://www.w3.org/2000/svg" xmlns:dc="http://purl.org/dc/elements/1.1/" mapsvg:geoViewBox="22.138577 52.380834 40.220623 44.387017"
	 xmlns="http://www.w3.org/2000/svg" xmlns:xlink="http://www.w3.org/1999/xlink" x="0px" y="0px" viewBox="0 0 612.5 408"
	 style="enable-background:new 0 0 612.5 408;" xml:space="preserve">
<path id="UA-77" d="M118.4,197.4l2.8,0.6l0.8,1.5l0.7-1.5l0.5-0.6l0.4,0l0.7,0.4l1.7,2.3l-0.2,1.3l0.8-0.1l1.1,0.7l0.9-0.2l1.4-1.5
	l1.6,0.6l0.4-1.6l0.7-0.2l0.3,0.4l0.2,1.7l-0.7,1.1l1.7,2.4l1.1-0.8l-0.1-0.7l-1-1.6l0.2-0.7l0.6-0.3l0.9,1l0.1,2.6l0.7,1l1,0.2
	l2.4-0.8l1.1,1.6l0.8-0.4l0.9,0.4l1.3-1.4l1.7-0.1l0,0l1.4-0.4l2.3,4.4l1.6,0.3l0.9-0.5l-0.6-1.6l0.1-0.6l0.8,0.1l0.8,1.1l1.4,0
	l0.6-0.4l-0.2-0.7l-1-0.9l-0.2-0.8l-1.6,0.2l-0.3-0.4l0.1-0.5l0.5-0.4l0.8,0l1.5,1.5l0.8,0l0.4-0.4l0.1-0.7l-0.1-0.7l-0.6-0.6
	l0.3-0.4l0.7,0.4l0.4,1.6l0.7,0.1l0.6-1l-0.6-1.5l0.9-0.7l0.7,0.3l-0.2,1.1l0.7,1.2l1.3,0.9l0.8-0.4l0.9-1.4l1.3-0.1l0.8-0.6
	l0.3,0.9l2.9,0.7l1.1-0.1l0.8-0.9l0.8-0.3l2.8,0.9l0.6-0.9l-0.9-1.2l0.3-0.8l1.2,0l1.3,1.2l0.8-0.4l0.3-1.1l0.7-0.1l0,0l2.7,1.6l1,3
	l-0.1,1.7l0.7,1.3l1.2,0.6l0,0l-1,0.8l-1,0.1l-0.9,2.1l-1.9,0l-0.4-0.5l0.1-0.7l-0.4-0.4l-0.6-0.3v0.4l-0.4-0.4l-0.1,0.4l-0.6-0.1
	l-1.2,3.6l-0.7-0.5l-1,0.4l-0.7-0.8l-0.7-0.2l-0.9,0.8l-0.9,0.2l-1.6-1.8l-0.3-1.3l-0.6,0.7l-1.6-0.1l0.8,0.6l0.3,1.5l-0.1,0.2
	l-0.6-0.4l-0.9,0.2l-0.3,1.1l-2.2-0.7l-0.1,0.4l-1-0.9l0.1-0.8l-0.7-1.1l-0.9,0.3l-2.4-0.2l-0.8,1l-0.9-0.6l-0.4,0.3l1.7,2.5l1,0.5
	l0.5-0.4l0.5,0.4l0.2,1.6l-0.5,1l-0.6,0.1l-0.7-0.4l-0.6-1l-0.6,0.4l-1.6-2.2l-0.3,0.1l0.4,1.4l-0.6,0.1l0,0.4l-0.9,0.6v0.4
	l-1.1,1.1l0.4,0.9l-0.1,0.5l-0.5-0.1l0.1,0.6l-0.8,0l-0.4-0.4l-0.4,0.3l-0.1,1.1l-0.7-0.3l-0.1,0.5l-0.8,0.4l-1.9-0.6l-0.5,0.7
	l-0.7,0.2l0.1,0.4l-0.5-0.3l-1.2,0.7l-0.4-0.5l-0.5,0.6l-0.4-0.3l-0.1,0.4l-0.5,0l-0.2,0.4l0.2,0.9l-1.2,1.3l-0.8,2.6l-2.1,1.6
	l-0.5,2.3l-0.5,0.6l-2.6,0.8l-1.5-0.5l-3.8,0.9l-1.2-0.3l-0.3,0.7l-0.5,0.2l-1-0.5l-1.2,0.3l-0.5,0.6l-1.2,0.6l-3.1-0.1l-1.2-0.4
	l-2,0.6l-9.3,1.2l-1.5,1.1l-1.3,0l-0.3,1.7l-1.8,2.5l-0.1,0.9l-0.6,0.1l-0.5,0.5l-0.6,1.2l-1.6,0.7l-0.4-0.3l-0.5,1.1l-1.1-0.4
	l-0.3,0.4l-2.6-0.1l0,0l0.8-3.4l1.2-1.7l0.5-1.4l-0.5-0.2l0.1-0.4l-1.2-1.1l-0.1-0.5l0.5-0.2l-0.1-0.8l-1.3-1.4l0.3-0.3l-0.3-0.2
	l0.2-0.4l-0.5-1.6l0.4-0.7l-0.2-0.9l2.8-3l-0.5-1.1l0.2-0.4l0.6-0.2l1.1,0.4l0.1-0.9l0.9-0.2l0-1.3l0.9-0.2l-0.2-0.9l0.5-0.2
	l0.9,0.4l0.3-0.2l0.1-0.7L101,221l0.1-0.5l-0.4-0.3l1.2-1.1l1.3-0.2l2.7-3.8l2.5-2.5l2.2-0.9l1.3,0l1.1-0.4l1.8,0.3l0.8,0.8h2.3
	l0.3-0.9l-0.7-2.5l0.1-6.2l-0.5-0.9l0.1-1.8l-0.2-0.3L118.4,197.4z"/>
</svg>
