<?xml version="1.0" encoding="utf-8"?>
<!-- Generator: Adobe Illustrator 27.9.0, SVG Export Plug-In . SVG Version: 6.00 Build 0)  -->
<svg version="1.1"
	 id="Layer_1" xmlns:mapsvg="http://mapsvg.com" xmlns:rdf="http://www.w3.org/1999/02/22-rdf-syntax-ns#" xmlns:svg="http://www.w3.org/2000/svg" xmlns:dc="http://purl.org/dc/elements/1.1/" mapsvg:geoViewBox="22.138577 52.380834 40.220623 44.387017"
	 xmlns="http://www.w3.org/2000/svg" xmlns:xlink="http://www.w3.org/1999/xlink" x="0px" y="0px" viewBox="0 0 612.5 408"
	 style="enable-background:new 0 0 612.5 408;" xml:space="preserve">
<path id="UA-14" d="M532.8,168.5l0.6,1.4l0.6-0.1l0.9,1.1l-1.4,0.9l0.3,0.4l-0.3,0.3l0.5,0.5l2.5,1.1l1.8,0.1l0.2-1.2l1.2,0.2
	l-0.7,4.2l-0.3,0.3l1.6,3.3l-1.6,0.5l0,1l-0.8-0.4l-0.8,1.5l1.1,0l0.1,0.5l1.4,0l0.9,0.5l0.7,0l0.4-0.4l2.1,0.3l0.6-0.2l0,4.7
	l1.1-0.1l0.5,0.9l1.3-0.1l0,0.7l-0.9,0.1l-0.4,0.5l0.2,1.4l-0.7,1.2l0.8,0.8l1.1,0.1l0.2,0.7l-0.7,0.3l0.4,0.5l0,1l-0.9,0.2
	l-0.1,0.4l-0.8,0.3l0.5,6.3l1.4,1.7l-0.6,0.9l0.2,0.8l-0.4,0l0.9,0.6l-0.2,0.5l1.1,0.9l1-0.2l0.3,0.6l1.7-0.8l0.5,3.6l0.6-0.2
	l0.9,0.8l-2,1.2l0.1,1.1l-0.4,0.5l-0.1,1.1l1.4,0.8l3-0.4l1.2,1.2l0,1.4l0.8,1.2l-0.1,0.6l-0.4,0.4l0.3,0.6l1,0.5l1.9,0l-0.1,0.6
	l4.3,1.5l-0.4,1.5l0.7,0.4l0,0.8l-0.5,0.9l0.8,1.6l6.8,0.5l0,2.4l0.6,0.5l0.5-0.1l0.6,0.6l-0.9,2.4l0.3,1.1l0,0l-3.9,0.1l-2.7-0.4
	l-0.2,0.5l-1.3,0.2l-0.4,1.3l0.1,1.1l-1.3,0.1l-0.3,1.3l0.5,0.9l-0.2,1.6l-0.7,0.6l0.1,2.1l-1.2,0.2l0-0.9l-2.3,0l0.1,1.5l-1.3,0
	l0,0.7l-0.4,0.5l-5.3,0l-0.1,1.3l-3.5,0.1l0,2l-1.4,0l-0.2,1.6l-0.7,0.1l0,1.8l0.3,0.3l-0.2,1.2l0.5,0.2l0,4.1l-0.5,0l0,0.8
	l-1.2,0.3l-1,2.1l0.1,0.9l3.9,0.1l-0.3,1.2l0.1,0.8l-0.3,0.4l-1.1,0l-0.1,0.8l-1.8,0.4l0.4,0.9l-0.3,3.6l-0.8,1.6l-1.7,2.1l-1,0.2
	l-1.2-2l-1.2-0.4l-1.1,1.1l-1.3-0.4l-0.9,0.1l-2.5-0.8l-3.5,1.2l-2.9,0.3l-2.6-0.7l-3,0.7l-0.7,0.6l0.2,0.9l-1.1,0.5l-5.2,7.5
	l-1.3,1.2h-0.3l1.1-1.1l-0.2-1l-1.1-1.1l-1.7-0.8l-1.6,1l-0.8,0.9l-1.3,0.3l-2,1.2l0,0l-1.4-2.2l2.4-2l0.2,0.2l1.4-0.8l-1.7-1.3
	l1.2-1.6l-0.8-0.9l-0.7,0.5l-3.2-1.5l0.9-0.5l-0.4-1.9l-0.6,0.2l-1.2-1.7l-0.3,0.1l-0.1-0.4l-0.4,0.3l-0.1-0.6l-0.4,0.4l-0.3-0.5
	l-0.4,0.1l-1.2-1.4l1.2-0.1l-0.1-0.3l2.6,0.2l-1.2-5.8l0.6-0.1l0.2,0.5l2.7-0.2l0.4,0.7l1.5-0.6l-0.1-0.4l1.4-0.9L507,263l1-0.2
	l0.9,1.9l1.3-0.7l-0.3-0.9l1.3-3.2l0.3,0l0.1-1.6l-1.8-0.1l0.1-0.5l-0.5-0.2l-0.8,1.5l-2.4-2.1l-0.2,0.2l-1.8-3.1l-0.7,0.7l-0.7-1.2
	l-0.5,0.4l-0.7-1l-1.8,1.4l-2.2-3.8l-2.2,1.1l-0.6-0.3l-0.1-0.7l0.7-0.1l0-0.5l-1.3,0.2l-0.2-1.4l1.1-0.2l0.1-0.3l0.7,0.2l0.6-1
	l-2.6,0.3l-0.4-2.4l-0.5,0l-0.5-3.3l-2.8,0.4l0-1.6l0.4-0.1l0.3-1.2l-0.1-0.5l-0.6,0.1l0,0l-0.2-1.6l-0.9,0.1l-0.2-1.4l1.6-0.3v-0.5
	l1.7,0l-0.4-2.1l-1.5,0.2l-0.3-1.9l0.5-0.1l-0.8-0.6l0.7-0.4l-0.6-1l0.4-0.6l-0.2-1.4l0.8-0.2l0-0.3l0.7,0.4l0.9-0.5l0,0h-0.4l0,0
	l0.5-0.4l0.3,0.6l0.5-0.1l1.2,0.6l0.2-0.3l0.8,0.8l0.2,0.9l0.5-0.3l0.4,0.6l1-0.3l0.2,0.6l1.4,0.4l0.2-1l0.6,0l0.7-1.4l-0.8-5.2
	l0.5,0.3l0.2-0.7l0.4,0.2l0.2-0.3l0.9,0l-0.9-5.9l-1.3,0.2l-0.1-0.5l-1.7,0.2l-0.3-1.8l0.1-0.9l0.5-0.4l-0.2-1.7l0.4-0.2l-0.3-0.2
	l0.5-0.3l0.5,0.1l-0.1-1.3l-0.4,0l-0.2-2.1l0.8-0.2l-0.1-1.4l1.9-0.3L500,204l-1-0.3l-0.4-0.9l-1.6,0l-0.2-1.4l-0.9-0.2l-1.1,0.2
	l-0.2-1.5l0,0l-0.6-1.3l-0.3-2l0.4-0.1l0.3-0.6l-0.7-1.9l-0.1-1.3l-0.6,0l-0.1-0.3l1-1.5l1,0.2l0,0.6l0.8,0.4l1.5,0.1l0.2,0.3
	l0.6-0.1l0.6-1.4l3.8,0.4l2.2,2.3l0.4-0.8l-0.7-0.1l0-0.4l-0.9-0.8l0.4-0.6l0.4,0l0.2-0.8l1.5,0.2l0.2-1l0.4,0.1l0.4-1l1.6,0.4
	l-0.1,0.5l1.7,1l0-3.3l0.7-0.5l0.5-1l1.3,0l0.1-0.8l2,0.1l0.2-0.9l-0.8-0.2l0.3-0.8l-0.8-0.7l0.4-0.5l0.3,0.2l0.2-0.4l-0.4-0.2
	l0.9-0.4l0.1-0.5l0.5,0.6l0.4-0.1l0.1-1.6l0.5,0.1l-0.2-1.3l0.7-0.1l0.4-0.5l1.1,0.1l0,0.3l0.5-0.3l0.5,0.2l-0.1-0.3l1-0.4l-0.2-1.1
	l-0.5-0.5l0.3-0.3l1.7-0.3l3.1-1.6l-0.9-1l-3.6-1.4l0,0l1.5-1.5l0,0l0.5-0.5l1.9-0.3l6.1,1.6l1-0.2l0,0.3l0.7,0.1l0.2-1.2
	L532.8,168.5L532.8,168.5z"/>
</svg>
