<?xml version="1.0" encoding="utf-8"?>
<!-- Generator: Adobe Illustrator 27.9.0, SVG Export Plug-In . SVG Version: 6.00 Build 0)  -->
<svg version="1.1"
	 id="Layer_1" xmlns:mapsvg="http://mapsvg.com" xmlns:rdf="http://www.w3.org/1999/02/22-rdf-syntax-ns#" xmlns:svg="http://www.w3.org/2000/svg" xmlns:dc="http://purl.org/dc/elements/1.1/" mapsvg:geoViewBox="22.138577 52.380834 40.220623 44.387017"
	 xmlns="http://www.w3.org/2000/svg" xmlns:xlink="http://www.w3.org/1999/xlink" x="0px" y="0px" viewBox="0 0 612.5 408"
	 style="enable-background:new 0 0 612.5 408;" xml:space="preserve">
<path id="UA-65" d="M426.2,330.8l1.5-0.2l-0.2,1.3l-1.1-0.3l-1.5-1.5l0.7,0.1L426.2,330.8L426.2,330.8z M353.1,327.3l3.4,0.6
	l3.5,1.1l1.7-0.3l1.8-1.1l1.2,1l1,0.2l0.4-0.5l1.2,0.8l2,0.2l0.9,0.5l-1.3,0.4l-5.2-0.4l-10.9-2.4L353.1,327.3z M417.6,324.6
	L417,325l-0.2,0.7l-1.2,0.6l0.1,1.4h-0.2l-0.4-1.8l1.3-1.3L417.6,324.6L417.6,324.6z M429.7,323.9l1.3,8l3.2,8.8l0,0l-0.5,0.3l0,0
	l-0.8-2.6l-0.8-1l-0.6,0.1l-0.3,1.1l-0.7,0.6l-0.8,0.1l-0.3-0.7l0.7-1.6l0.4-3l-0.4-0.5l0-0.9l1.1,1.1l-0.9-2.2l-0.6-0.3l0.2-1
	l-0.4,0l-0.3-1.6l-0.6-0.6l-0.6,0.1l-0.5,2l-0.7-1.5l-1-0.5l0.4-0.8l-0.3-0.7l-1.3-0.5l0-0.5l1.7,0.3l1.3-0.5l0.5,1.5l0.4,0.1
	l0.6-0.9l-0.3-2.2l0.7-0.6L429.7,323.9L429.7,323.9z M321.5,318.7l1.6-0.2l0.2,0.2l-0.7,0.2l-0.1,0.4l10.1,2.5l-8.7-1.9l-3.4-1.3
	l-1.8-1.5l-0.9-1.6l-0.1-1.9l0.4-0.8l0.3,0.1l0,2.5l0.4,1.3l0.9,1.1L321.5,318.7L321.5,318.7z M371,252.7l2.6,0.6l2.2-0.5l0.1,0.9
	l-0.6,0.6l-0.1,0.7l0.9,0.1l1.2-0.7l0.2,0.2l-0.1,1.4l1,0.5l0.1,1l1.3-0.5l-0.7-0.9l-0.1-0.6l5.4-1l-0.3-2.1l3.4-0.7l0.5,1.3
	l0.5,0.1l-0.1,0.6l-0.5,0.2l0,2.7l1.5-0.5l0.3,1.4l9.7-1.6l1.4,2.1l0.9,0.8l4.8-1l0,0l2.9,1.5l0.6,0.6l0.6,3.6l0.5,0l0.7,4l0.5,0.4
	l0.8-0.8l1-0.1l0.6,0.5l0.9-0.2l-0.1-0.5l0.7-0.1l-0.1-1.1l3.4-0.7l-0.1,0.8L418,266l0.3,1.7l1-0.1l0.3,0.8l0.1,0.8l-1.3,0.2l1,7
	l1.1-0.1l0.5,4.2l0.8-0.1l0.3,1.5l0.6,0l0.1,1l2.1-0.3l0.1,1l1.6-0.3l0.6,4.1l1.7-0.1l0.4,2.7l-2,0.3l0.3,2.1l-0.5,0l0,1.1l-0.5,0
	l0,0.4l-2.7,0.4l0.1,0.6l-1.1,0.2l0.3,1.8l1.6-0.2l0.1,0.7l2.1-0.3l0.3,2.8l-1.4,0.4l0.3,1.8l0.9,0l0.3,1.5l4.5-0.7l0.2,1.3
	l-0.5,0.1l0.3,1.5l1.8-0.3l2.6,1.6l1.1-0.1l0.6,8.9l1-0.1l0,0l-0.9,1.1l-1.4,0.9l-4.7,1l-2.1,1.8l-0.7,2.1l-1.3,0.1l-0.5-0.7
	l-0.9,0.3l-1.6-0.8l-1.9,0.5l-0.2,1.2l0.7,2.6l-1.2,3.1l-0.6,1.1l-1.4,1.3l-0.3-0.6l-0.5-0.2l-0.3,0.2l-0.5,0.5l-0.5,1.4l-0.3-1.6
	l0.3-0.7l-0.5-0.5l-1.7-0.4l0.1-0.6l0.5-0.8l1.5,0.2v-0.3l-1.2-0.2l-0.3-1.6l0.8-0.6l0.5-0.9l-0.2-0.4l0.4,0.1l0.4,1.7l0.4-1.4
	l1.4-0.6l0.7,1.3l0,0.3l-0.5-0.1l0,0.4l0.6,0.2l0.6-1.4l0.1-2.4l-0.8-0.5l-0.8-1.1l-0.5,0l-0.4,0.5v0.7l0.6,1.1l-0.9,0.2l-0.1,0.4
	l-1-0.2l-0.8-0.7h-0.5l-0.3-0.7l-0.4,0l-1.4-1.4l-1,0.2l-0.6-0.9l0.1-1l-0.6-1.2l-0.5-0.1l0.5,1.5l-0.5,1.8l0.4,1.2l0.6-0.2l0.3,0.4
	l-0.6,1.1l-0.1,1.7l-0.7,0.2l-0.1-2.6l-1.2-1.3l-0.8-2.3l-0.8-0.6l-0.4-1.2l-1-1.1l-0.5,0l-0.5,1.4l-0.8-0.7l-0.4,0.5l1.5,0.4l1,3.1
	l1,0.9l-0.1,0.6l-1.5,1.2l-0.4-0.4l0.6-1.6l-0.5-1.4l-0.6-0.2l-0.4,1.4l-0.9,0.3l0.1,0.2l0.7-0.3l0.5,0.4l0.3,0.6l-0.1,0.7l0.8,0.5
	l-0.5,1l-0.5-1l-0.5-0.3l-0.6,0.8l-0.5-0.1l-0.1-1l-0.7-0.7l-0.7,1.1l0,0.9l-2.4-4.3l-1-0.8l-0.8-0.2l-1,0.3l-0.5-0.8l-0.4,0.5
	l-1,0.2l-2.1-1.7l-0.3,0.6l-1.5,0l-0.2,0.7l0.8,1.4l-0.7,0.1l-0.9-0.5l-0.5-0.5l-0.1-0.6l-0.4,0.2l-0.8-0.8l0.1,0.6l0,0l-1,0.2
	l0.7,4.2l-0.7,0.2l0,0l-0.3-0.7l-0.9-0.5L387,324h-0.5l-0.3,0.9l-0.5,0.1l-0.5-0.3l0.2,1.2l1.5,1.1l-1.5-0.3l-0.7,0.3l-0.2,1.1
	l0.8,1.2l-0.9-0.1l-1-0.9l-1.1,0.4l-0.1,0.5l-3-4l-0.3-0.1l-0.5,0.5l-0.2,1.4l-0.9-0.1l-0.1-0.6h0.6l0.3-1.4l-0.8-0.6l-1-0.3
	l-1.2,0.3l-0.3,0.2l0,1.1l-0.3-0.2l0.1-1.2l0.8-0.9l-0.7-1l0.6-2.1l-0.8,1.3l-0.5-0.2l0.3,0.7l-0.4,1.2l-1.8,1.5l-1.6-0.6l-0.5-0.9
	L369,323l-0.3,0.4l0.3,0.5l-0.5,0.8l0.4,0.5l-0.5,0.2l-1.7-0.1l-1,0.3l-2.7-0.5l-0.9,0.3l-2.1-0.6l-0.8,0.3l-0.2,0.4l-2.1,0.5
	l-0.8-0.4l-1.7,0.4l-2,1l-0.2,0.5l0.3,0.2l-1.7-0.4l-9.9-3.1l0.8,0.1l0.4-0.6l-0.3-1l0.1-0.2l0.1,0.3l0.3-0.1l-0.3-0.7l-1.1-0.3
	l-0.5,0.4l0.4,0.3l-0.4,0l-1.3-1.4l-0.9,0l-1.3-1l-0.5-1.3l-0.9-0.4l-0.5,0.4l-2.1-0.4l-0.7-0.7l-0.4-1l-1.5-0.3l-0.6,1.4l-3-0.1
	l-0.4,0.4l-0.2-1.4l-0.6-0.1l0.2-0.6l0.9-0.7l1.4-0.6l3-0.1l1.3-0.4l1.4-0.7l0.5-0.9l0.9,0l0.6-0.5l-1.1-2.5l-0.6-0.6l-0.5-0.1
	l-0.9,0.7l-0.7,0l-5-1.9l0,0l0.5-0.9l0.8,0l0.4-0.9l0,0l0.7,0.3l0.9-0.3l0.2,0.4l2.6,1l2.1,0.1l1.1-0.4l1.6,0l2.5,0.9l2.1,0.1
	l2.8,0.7l2-0.4l0.7-0.7l0.1-0.4l-0.8-0.1l-1.3,0.3l-0.9,0.5l-0.1,0.4H345l-1.2-0.8l0.8-0.2l0-0.4l-1-0.2l1.2-0.1l-0.6-0.2l-0.2-0.6
	l0.5-0.5l-0.5-0.5l0.5-0.1l0-1l-0.3-0.4l-1.7-0.9l-3.7,1.6l-1.2-2.7l-1.7-0.1l-2.4-2l0,0l0.2-0.5l1.4-0.1l-0.4-0.5l2.3-0.4l-0.3-2.2
	l-0.5,0.1l-0.2-0.8l1.6-0.4l0.3,0.3l1.7-0.3l0.2-0.5l1.6-0.4l-0.2-1.7l1.2-0.6l-0.8-1.4l4.2,2.6l0.9-0.1l-0.2-1.7l3.3-0.5l0.2,1.2
	l2.1-0.3l-0.2-1.2l0.4-0.1l-0.3-1.6l0.4,0l0.1,0.6l0.9-0.1l0.4,0.9l3.6-0.3l0.3,2l2-0.3l0.4,0.3l0.1-0.5l1.4-0.2l0-0.4l4.6-0.8
	l-0.1-0.6l-0.9,0.1l-0.2-0.9l-2.1,0.4l-0.4-0.2l-0.1-0.9l3-0.7l-0.1-0.8l2-0.2l-0.1-0.8l-0.9,0.1l-0.6-2l0.7-0.6l2.4,1.3l1.5-2.4
	l-4.6-2.8l-0.8-2.3l1.4-1.9l0.3-1.3h1.5l0.1-0.3l0.4,0.8l0.7,0.1l0-0.5l1-0.6l0-1l1.1-0.2l0.5,0.9l0.6,0.1l0.5-0.3l-0.4-0.4l0-0.8
	l1.6-0.2l-1.4-1.6l-0.7-0.5l-0.5,0l-0.1-2.1l1.1-0.5l-0.4-2.8l-2.8,0.5l-0.2-0.4l-0.1-2.9l0.8-0.2l0-0.9l0.5-0.2l0.1,3l2.2-0.3
	l-0.4-4.4l0.8-0.4l-0.2-1.1l-0.1-0.3l-1.5,0.9L371,252.7L371,252.7z"/>
</svg>
