<?xml version="1.0" encoding="utf-8"?>
<!-- Generator: Adobe Illustrator 27.9.0, SVG Export Plug-In . SVG Version: 6.00 Build 0)  -->
<svg version="1.1"
	 id="Layer_1" xmlns:mapsvg="http://mapsvg.com" xmlns:dc="http://purl.org/dc/elements/1.1/" xmlns:svg="http://www.w3.org/2000/svg" xmlns:rdf="http://www.w3.org/1999/02/22-rdf-syntax-ns#" mapsvg:geoViewBox="22.138577 52.380834 40.220623 44.387017"
	 xmlns="http://www.w3.org/2000/svg" xmlns:xlink="http://www.w3.org/1999/xlink" x="0px" y="0px" viewBox="0 0 612.5 408"
	 style="enable-background:new 0 0 612.5 408;" xml:space="preserve">
<path id="UA-30" d="M291.7,101.9l-0.2,1.4l0.4,0.5v0.9l1.7,1.5l0.2,1.8l-1.4,1.8l-1.9,0.9l-1.5-1l-0.8,0.1l-0.3,0.4l-0.1,1.5
	l0.4,0.3l0.1,1.2l-0.5,0.9v1l0.4,1.6l-0.9,1l-1-0.4l-1-1.5l-0.8-2.2l-0.3-2.5l-1,0.1l-0.9-0.8l-0.6-0.1l-0.8-2.5h-1l-0.5-0.4l-0.5-2
	l-1.3-0.2l-1.3,0.4l-0.6,0.4l-0.3,0.7l-0.7,0.1l-0.3-0.9l1.1-2.7v-1l0.5-0.8l1-1l0.9,0.2l0.3-0.6l-0.3-0.6l-1.4-0.9l-0.1-0.5
	l0.3-0.2l2.7-0.2l2.4,0.4l3,3.2l1.5-0.9h2.9l0.6-0.5l0.6-1.3l1.2-0.4l1.9,0.6l0.6,0.6v1.4l-0.6,0.4l-0.7-0.2l-0.8,0.4L291.7,101.9z"
	/>
</svg>
