<?xml version="1.0" encoding="utf-8"?>
<!-- Generator: Adobe Illustrator 27.9.0, SVG Export Plug-In . SVG Version: 6.00 Build 0)  -->
<svg version="1.1"
	 id="Layer_1" xmlns:mapsvg="http://mapsvg.com" xmlns:rdf="http://www.w3.org/1999/02/22-rdf-syntax-ns#" xmlns:svg="http://www.w3.org/2000/svg" xmlns:dc="http://purl.org/dc/elements/1.1/" mapsvg:geoViewBox="22.138577 52.380834 40.220623 44.387017"
	 xmlns="http://www.w3.org/2000/svg" xmlns:xlink="http://www.w3.org/1999/xlink" x="0px" y="0px" viewBox="0 0 612.5 408"
	 style="enable-background:new 0 0 612.5 408;" xml:space="preserve">
<path id="UA-09" d="M548.4,124.9l0.8,2.5l-0.1,1l2.2,1.2l0.5-0.9l1.2,0.2l-0.1,0.6l0.4,0l0.3,0.9l1.3,0.4l1.9-1l1.1,0.2l1,0.9
	l1.1-0.9l0-1.4h0.3l0.8,1l-0.9,1l0.2,1.5l1,0.4l0.8,1.5l0.8,0.1l0.6,0.9l1.1,0l1,0.8l1.7-0.3l0.6,0.6l-0.4,0.5l0.3,0.9l-0.2,0.2
	l0.8,1.6l0.6,0l2.5-1.5l1.4,0.3l1.4-1l0.9-1.4l1.6-1.3l1.5,2.6l0.1,1.8l0.7,1.4l1.2,1.2l3.1,0.9l2.3-1.1l1.4,0.2l1.8,1l2.3,0.2
	l-0.3,1.3l2,4.9l3.1,0.9l1.9,2l2.9-0.1l1.1-0.4l1.1-1.5l3.1-0.4l0.6,0.3l2.4-0.9l0,1l1,1.4l-4.2,2.5l-0.3,2.9l1.6,2.8l2.1,1.5
	l1.7,1.8l-0.5,2.8l1.4,1.4l-0.1,1.1l-0.5,0.3l-2.1,0l-2,2.7l-1.5,0.4l-3,4.9l-0.1,1.4l-2-0.4l-2.4,0.1l-1.3,1.1l-2.6-0.6l-0.7,0.6
	l0.4,0.3l-0.6,1.8l0.4,0.5l0.7-0.5l0.8,0.6l1,0.1l0.2,1l1.1,1.4l-0.5,0.8l0.6,0.7l0.3-0.2l0.6,0.4l0.3,1.1l0.6-0.8l0.3,0.5l2.2-0.3
	l1.1,1.2l1.3,0.3l0.4-1.7l1-0.8l0.8,0.4l0.7,2l-3.4,4l-6-2.5l-0.3,0.3l0.2,0.6l-0.4,0l-0.2,0.6l0.1,1l-0.6,0.7l0,0.6l-1,0l0,1.1
	l-0.4,0.2l0,0.7l-0.7,0.3l0.2,0.4l-0.3,0.4l0.5,0.1l0.1,1l-0.7,0.8l0.3,0.2l0,0.6l-0.6,0.3l0.1,0.5l-1.1,1.5l0.9,1.2l1.9-0.2
	l0.2,0.4l1.3-0.5l0.5,0.4l0.6-0.1l-0.1,0.3l0.9,0.5l0.6,3l-0.7,0.4l0,1.5l1.7,1.2l-0.2,0.6l0.7,0.7l-0.1,0.9l0.4,0.3l-0.4,0.4
	l0.6,0.8l0.6-0.6l-0.2,0.9l0.4,1l-1.9,0.9l-1.3,0l-0.3,1.2l1.4,0l0.3,0.6l0.3-0.1l0.5,0.6l-0.2,0.6l0.3,0.3l1.2-1.6l0.5,0.2
	l-0.2-0.2l0.4-0.6l0.5-0.1l1.2,3.2l-0.4,0.6l0,0.9l-2.3-0.2l-0.2,2.4l-0.9,0.1l-0.3,1.9l-1,1.3l-0.2,1.9l-1,0.6l1.6,0.9l0,0.4
	l-3.7,0.1l0.6,1.4l0.7,0.5l-0.2,0.7l0.4,0.3v1.4l-0.4,0.1l-0.5,1.4l0,2.4l-1,0.2l0,1.1l-0.9,1.1l-3.8-0.6l-2,0.1l-0.7,0.6L589,240
	l-0.5,0.3l-1.4-1.7l-1.2,0.3l-0.4,0.9l-0.6,0.3l-1-2.1l-4.9,0.2l-0.2,0.7l-2.8,0.2l-0.1,0.4l-2.1-0.5v-0.9l-0.4,0l0,0l-0.3-1.1
	l0.9-2.4l-0.6-0.6l-0.5,0.1l-0.6-0.5l0-2.4l-6.8-0.5l-0.8-1.6l0.5-0.9l0-0.8l-0.7-0.4l0.4-1.5l-4.3-1.5l0.1-0.6l-1.9,0l-1-0.5
	l-0.3-0.6l0.4-0.4l0.1-0.6l-0.8-1.2l0-1.4l-1.2-1.2l-3,0.4l-1.4-0.8l0.1-1.1l0.4-0.5l-0.1-1.1l2-1.2l-0.9-0.8l-0.6,0.2l-0.5-3.6
	l-1.7,0.8l-0.3-0.6l-1,0.2l-1.1-0.9l0.2-0.5l-0.9-0.6l0.4,0l-0.2-0.8l0.6-0.9l-1.4-1.7l-0.5-6.3l0.8-0.3l0.1-0.4l0.9-0.2v-1
	l-0.3-0.5l0.7-0.3l-0.2-0.7l-1.1-0.1l-0.8-0.8l0.7-1.1l-0.2-1.4l0.4-0.5l0.9-0.1l0-0.7l-1.3,0.1l-0.5-0.9l-1.1,0.1l0-4.7l-0.6,0.2
	l-2.1-0.3l-0.4,0.4l-0.7,0L540,184l-1.4,0l-0.1-0.5l-1.1,0l0.8-1.5l0.8,0.4l0-1l1.6-0.5l-1.6-3.3l0.3-0.3l0.7-4.2l-1.2-0.2l-0.2,1.2
	l-1.8-0.1l-2.5-1.1l-0.5-0.5l0.3-0.3l-0.3-0.4l1.4-0.9l-0.9-1.1l-0.6,0.1l-0.6-1.4l0,0l-0.2-0.5l1.5-0.7l-0.4-0.5l2-0.8l-0.3-0.9
	l-2.2-0.5l-0.2-0.9l0.7-3.9L533,159l0-1.4l-1.1,0l0.2-2.1l-0.4-0.4l0.4-1.4l1.2,0.1l1.3-1l0.1-0.5l-1.4-0.2l0.5-1.1l1.7,0.1
	l-0.4-1.2l0.2-0.9l1-0.1l0.1-0.6l0.7-0.2l-0.5-1l2.1-0.6l-0.6-0.3l-0.5-1.7l-0.4-0.3l0.5-0.3l-0.1-0.4l-0.8-0.1l-0.5,0.3l-0.8-1.2
	l0.8-1.9l0.7,0.7l1.2-1.6l0.6-0.1l0-0.4l-1.5-1.1l0.4-1.2l1.8,0l0.6-0.6l-2-2.8l0,0l0.8-1.2l2.3-0.9l0.1,1.1l1.5-1l-0.2-0.6l1-0.5
	l0-0.4l0.8-0.5l-1-2.2l-0.3-3.1l3.1,0.4l1.4-0.8l0.6,0.2L548.4,124.9z"/>
</svg>
