<?xml version="1.0" encoding="utf-8"?>
<!-- Generator: Adobe Illustrator 27.9.0, SVG Export Plug-In . SVG Version: 6.00 Build 0)  -->
<svg version="1.1"
	 id="Layer_1" xmlns:mapsvg="http://mapsvg.com" xmlns:rdf="http://www.w3.org/1999/02/22-rdf-syntax-ns#" xmlns:svg="http://www.w3.org/2000/svg" xmlns:dc="http://purl.org/dc/elements/1.1/" mapsvg:geoViewBox="22.138577 52.380834 40.220623 44.387017"
	 xmlns="http://www.w3.org/2000/svg" xmlns:xlink="http://www.w3.org/1999/xlink" x="0px" y="0px" viewBox="0 0 612.5 408"
	 style="enable-background:new 0 0 612.5 408;" xml:space="preserve">
<path id="UA-46" d="M66.3,93.7l1.8-0.1l1.3,2.3l0.6,0.2l0.3,0.9l1.3,0.9l2.4,0.4l0.5-1.2l1.3,0l0.5-0.6l1,1.1l-0.3,0.7l0.2,0.8
	l1.4,1l0.6,0l1.5-0.8l0.6,0.2l0.9,1.7l-0.1,1.4l0.3,0.3l0.7-0.2l0.1-0.5l0.3,0.2l-0.2,0.3l0.3,1.4l-0.4,0.3l0.3,0.2l-0.1,2.3l2,0.2
	v0.4l2.3,1.4l-0.3,1.7l2.2,0.3l0.5-0.4l2.3-0.3l0.3-0.4l0.7,0.1l0,0.7l1.7,0l-0.2-1.7l0.4-0.6l2.6,2.4l1.1,0l0.3,0.8l-0.1,1.3
	l1.9,0.8l0,0l0.4,0.2l1.4-0.4l1.3,0.6l-0.1,1.7h-0.5l-0.5,0.7l0.2,0.6l-0.4,0.3l0.1,0.9l1.5,1.1l-0.5,0.7l-0.2,2l3.9,5.6l1.2,1l0,0
	l1.7,1l0.3,0.8l-0.2,1l0.7,0.5l-1.3,0.4l-0.4,1.1l0.5,0.8l-0.6,1.6l-2.5,0.6l-0.4,1.4l-1-0.5l-0.4,0.1v0.5l-0.6,0.1l-1.7-0.8
	l-0.3,0.3l-0.8-0.1l-0.5,0.9l-1.8-0.6l0.3,2.1l-0.5,0.9l1.4,1.4l-1.7,1.7l-0.8-1.1l-0.8-0.3l-0.7,2l-0.4,2.9l-0.7,0.2l-0.5,1
	l-0.6-0.1l0.1,0.4l-0.9-0.3l-0.4,0.3l0.2,0.5l-1.1-0.6l-0.4,0.5l-0.8,0l0.1,0.9l-0.4-0.6l-1,0.4l-0.2,0.7l-2.6,0.1l0.4,1.2l-0.2,2.7
	l0,0l-0.8,0.1l-1.5-0.7l-0.6,0.4l-1.4-0.8l-0.8-1l-1,0.6l-0.8-0.1l-0.4-0.6l0.5-0.3l-0.7-0.7l-0.9-0.2l0.1,0.4l-0.4-0.1l0,0.3
	l-1,0.6l0.3,1.6l-1.1,0.1l-0.4,0.5l0.5,1.1l-0.2,1.4l-1,0.2l-0.4,0.6l0.6,1.9l1.6,0.7l-1.4,1.3l0.2,1l-0.8,1.3l-0.6-0.5l-0.6,0.6
	l-1.3-0.3l0,0.7l0.1,0.9l1.2-0.2l0.9,0.4l-0.4,1.4l-0.4,0.4l0.3,0.6l1.3,0.3l2.2-0.1l-0.4,0.8l0.2,0.4l-0.4,0.8l0,1l-0.6,0.3l-1.1-1
	l-0.8,0.1l-2.6,0.9l-1.6,1.3l-0.8-0.2l-0.3,0.5l-0.8-0.3l-0.2,0.9l-0.5-0.1l-0.4-0.6l-2.7-0.4l-1.4,1.6l-0.3-0.6l-1.3-0.5l-2,1.4
	l-0.3,0.5l-2.1-0.7l-1.3,0.4l-0.6-0.7l-0.3,0.1l-0.5-0.4l-1.2,1.4l-0.4-0.3l-0.7,0.4l-0.7,3.1l-0.7,0.5l-0.5-0.3l-0.3,0.3l-0.2,0.7
	l-1.8,2l0.7,1.1l-0.9,2.2l0.3,0.9l1.1,0.4l0.1,0.4l-1.1,0.5l0,1l-0.6,1.2l0.8,2.1l-1.2,2.1l0.2,0.7l0,0l-1.4-0.3l-1.2,0.7l-1.6-0.5
	l-1.5-0.7l-0.5-1.4l-1.2,0.8l-1.4-1.1l-0.7,0.6l-2.1,0.1l-1.7-3.7l-0.6-0.1l0-0.8l-1.2-0.6l-1.3,0.8l-0.6-0.2l-0.8,0.3l-0.6,0.8
	l-0.4-0.2l-0.5-0.6l-0.3-1.6l-1.1-0.5l-1.3-1.1l-0.7-1.7l0-0.9l0.8-0.6l0.7,0l-0.5-1.6l1.2-0.8l-1.9-1.1l0,0l-0.5,0l0.3-0.6
	l-0.3-0.8l0.8-1.5l-1.1-0.3l-0.2-0.6l-0.8,0.1l-0.5-0.9l-0.7-0.4l-0.1-1l-1.3,0.2l-0.4-0.3l0.6-1.2l-0.7,0l-0.5,0.9l-0.4-0.5
	l0.9-1.8l0.4-0.3l-0.9-0.3l-0.2-0.5l0.2-0.6l0.6-0.3l0.4-3.6l-0.2-2.3l-1.6-6.8l-1.2-0.4l-0.7-1.5l0.8-0.5l1.1-2.3l2.9-3.8l0.2-1.1
	l0.5-0.8l0.7-0.2l0.7-0.8l0.9-1.5l0.8-0.6l0.8-1.7l1.4-1.2l0.3-1.8l0.9-0.3l4-5.9l3.3-4l0.2-1l0.8-0.3l1.3-1.6l0-0.9l0.5,0l0.7-0.6
	l5.3-5.5l3.7-2.6l1.8-2.8l1.6-0.7l0.5-2.2l0.9-0.8l2.7-0.9l4.5-0.5l2,0.1l0.2-1.2l1-0.6l1.7-5.1l0.5-3.3L66.4,96l0.2-0.9l-0.4,0
	L66,94.6L66.3,93.7z"/>
</svg>
