<?xml version="1.0" encoding="utf-8"?>
<!-- Generator: Adobe Illustrator 27.9.0, SVG Export Plug-In . SVG Version: 6.00 Build 0)  -->
<svg version="1.1"
	 id="Layer_1" xmlns:mapsvg="http://mapsvg.com" xmlns:rdf="http://www.w3.org/1999/02/22-rdf-syntax-ns#" xmlns:svg="http://www.w3.org/2000/svg" xmlns:dc="http://purl.org/dc/elements/1.1/" mapsvg:geoViewBox="22.138577 52.380834 40.220623 44.387017"
	 xmlns="http://www.w3.org/2000/svg" xmlns:xlink="http://www.w3.org/1999/xlink" x="0px" y="0px" viewBox="0 0 612.5 408"
	 style="enable-background:new 0 0 612.5 408;" xml:space="preserve">
<path id="UA-48" d="M319.8,304.3l2.5,0l3.5-0.5l1.7,1l1.8,0.5l0,0l-0.4,0.9l-0.8,0l-0.5,0.9l0,0l-1.7-0.5l-1.1,0.2l-0.8,0.8
	l-0.1,0.8l0.5,0.6H324l-2.6-2.8l-2.5-2.1l-1.5-2.1l0.9,1.2L319.8,304.3L319.8,304.3z M276.6,224.3l2.2-1.6l4.2,0.4l0.3,0.6l0.8-1
	l1,1.1l2.2,0l0.2-0.5l1-0.3l-0.2-0.7l2.4-0.6l0.1,0.5l2.2-0.2l0.3,1.2l0.7-0.1l0-1l0.4,0.4l0.6-0.1l0.3,1.1l1-0.3l0.5,0.4l0.9-0.4
	l0.2-0.9l1.9-0.1l-0.4-1.8l2.4-0.5l0.1,0.5l2.8-0.4l0.1,0.4l0.8,0.1l0.9,1.3l-0.4,0.7l0.7,0.6l0.7-0.1l0.5,2.7l2.9-0.9l0.2,1.1
	l1.4-0.3l0.6-0.6l0.4,1.2l0.9-0.2l0-0.4l2.3-0.4l0.4,2.1l-0.7,0.3l-0.2,0.9l0.6,0l0.1,0.7l0.5-0.3l0.1-0.5l1.4-0.1l-0.3-2l0.5-0.1
	l0.3,0.4l0.5-0.3l0-1.2l1.6-0.3l0.3,1l1.5-0.2l0.4,1.3l2.5-0.4l0.5,3l-1.7,0.4l-0.1,0.5l0.7,4.1l0.9-0.7l0.2,0.2l2-0.4l0.3,2.5
	l0.8-0.2l0.2,2.7l-0.9,0.1l-0.1,1l0.5,1l-1.4,0.3l0.3,1.6l4.3-0.6l-0.1-0.6l3.1-0.4l0.2,0.6l0.5,0l0.5,1.1l0.7-0.1l0.2,1.4l0.5-0.1
	l0.3,0.5l0.5-0.7l0.2,0.5l2.3-0.5l-0.2-1.6l0.6-0.1l0-1l2.1-0.5l2.2,1.7l1.9-0.6l0.2,0.6l0.5,0l7.2-1.4l0.8-1.6l-0.4-0.2l-0.1-0.8
	l0.7-0.1l-0.3-1.6l-0.7,0.1l-0.1-0.7l3.1-0.6l-0.3-1l-1.3,0.3l-0.1-1.8l3.4-0.6l0.4,0.9l3-0.5l-0.2-1.7l-0.5-0.6h1.6l0-0.3l0.9-0.2
	l0.4,0.3l1.3-0.7l0.4,3.1l0,0l-0.4,0.6l0.4,2l-0.5,0.2l0.4,0.9l0.4,0.2l2.1-0.4l0.2,1.7l-0.5,0.2l0.4,2.3l-0.8,0.2l0.3,2.2l-0.6,0.3
	l0.2,0.9l0.4,0.1l0.1,1.1l-3.3,0.9l0.8,5.2l-1.2,1.2l4.5-0.2l0,1l0,0l0,2.7l1.5-0.9l0.1,0.3l0.2,1.1l-0.8,0.4l0.4,4.4l-2.2,0.3
	l-0.1-3l-0.5,0.2l0,0.9l-0.8,0.2l0.1,2.9l0.2,0.4l2.8-0.5l0.4,2.8l-1.1,0.5l0.1,2.1l0.5,0l0.7,0.5l1.4,1.6l-1.6,0.2l0,0.8l0.4,0.4
	l-0.5,0.3l-0.6-0.1l-0.5-0.9l-1.1,0.2l0,1l-1,0.6l0,0.5l-0.7-0.1l-0.4-0.8l-0.1,0.3h-1.5l-0.3,1.3l-1.4,1.9l0.8,2.3l4.6,2.8
	l-1.5,2.4l-2.4-1.3l-0.7,0.6l0.6,2l0.9-0.1l0.1,0.8l-2,0.2l0.1,0.8l-3,0.7l0.1,0.9l0.4,0.2l2.1-0.4l0.2,0.9l0.9-0.1l0.1,0.6
	l-4.6,0.8l0,0.4l-1.4,0.2l-0.1,0.5l-0.4-0.3l-2,0.3l-0.3-2l-3.6,0.3l-0.4-0.9l-0.9,0.1l-0.1-0.6l-0.4,0l0.3,1.6l-0.4,0.1l0.2,1.2
	l-2.1,0.3l-0.2-1.2l-3.3,0.5l0.2,1.7l-0.9,0.1l-4.2-2.6l0.8,1.4l-1.2,0.6l0.2,1.7l-1.6,0.4l-0.2,0.5L338,294l-0.3-0.3l-1.6,0.4
	l0.2,0.8l0.5-0.1l0.3,2.2l-2.3,0.4l0.4,0.5l-1.4,0.1l-0.2,0.5l0,0l-2.6-0.2l-0.8,1.2l-3,1.2l-0.7-0.7l-1.5-0.2l-2.1-0.9l-1.9,0
	l-1.1,0.7l-1,1.6l-1.1-0.9l-1.1-0.4l-2.2-0.1l-0.5,0.4l-1.3-0.1l-0.6,1.1l-2.1-0.6l-1.9,0.1l-1.9-0.8l0,0l0.4-1l-0.4-0.2l0.7-0.4
	l-0.7-0.5l0.3-1.8l-1.2-1.6l1-1.4l-0.8-1.5l0.1-1.6l-0.9-0.6l-0.6,0.1l-0.7-1.9l-1-0.8l-0.6,0l-0.8-3l2.4-0.6l0-0.5l1.5-0.3l0.3,0.5
	l3.5-0.6l-0.5-1.5l1.2-0.3l0.9,0.2l0-1.1l0.4-0.1l-0.3-1.6l0.3-0.1l-1.1-4.4l-0.6,0.1l-0.2-0.4L307,273l-0.2,0.8l-2.9,0l0-1.7
	l0.3-0.1l0.2,0.6l1.1-0.2l-0.4-1.8l1-0.2l-0.1-2.1l-5.2,1.3l-0.4-1.5l-0.7,0.1l0.3-1.1l-3,0.6l-0.5-2.1l-0.5,0.1l-0.2-0.8l1.2-0.6
	l-0.3-0.7l-0.5,0l-0.1-0.4l-0.3-1.6l0.7-0.2l-0.3-1.1l-1.2,0.2l0-1.1l0.6-0.1l-0.4-2.9l1-0.2l-0.4-1.7l-1.4,0.2l-0.2-0.5l-1.8,0.1
	l-0.7-0.6l-0.1-0.5l-0.1-0.5l1.1-0.2l-0.2-1.9l0.6-0.7l-0.1-0.7l-2.7,0.5l0.4,1.5l-1.5,0.4h-0.5l0.1-1.6l-1.5,0.4l-0.2-0.5l-4.6,0.9
	l-0.3-1.2l-1.5,0.3l-1.1-5.9l1.2-0.4l-0.3-1.3l0.7-0.1l0-0.6l-0.3,0l-0.2-1l-3.1,0.4l-1-5.5l0.3-0.3l-0.8-1.1l-1.2-0.7l0.1-0.7
	l-0.8-1.7l1-0.5l-0.7-1.6l-0.9-0.6l0.8-0.2l0.6-0.9l1.1,0.2l0.2-0.6l1.2,0l-0.4-0.2l0.1-0.3l0.5,0.4l0.9-0.2V226l-1.4-0.2
	L276.6,224.3L276.6,224.3z"/>
</svg>
