<?xml version="1.0" encoding="utf-8"?>
<!-- Generator: Adobe Illustrator 27.9.0, SVG Export Plug-In . SVG Version: 6.00 Build 0)  -->
<svg version="1.1"
	 id="Layer_1" xmlns:mapsvg="http://mapsvg.com" xmlns:rdf="http://www.w3.org/1999/02/22-rdf-syntax-ns#" xmlns:svg="http://www.w3.org/2000/svg" xmlns:dc="http://purl.org/dc/elements/1.1/" mapsvg:geoViewBox="22.138577 52.380834 40.220623 44.387017"
	 xmlns="http://www.w3.org/2000/svg" xmlns:xlink="http://www.w3.org/1999/xlink" x="0px" y="0px" viewBox="0 0 612.5 408"
	 style="enable-background:new 0 0 612.5 408;" xml:space="preserve">
<path id="UA-40" d="M386.5,387.8l0.9-0.1l0.9,0.5l2.2,0.1l0.5,0.5l0.3,1.5l-0.7,0.3l-1-0.1l-0.4,0.5l0.1,0.8l0.9,0.8l2.4-1l1.7,1
	l0.2,1.1l-0.1,0.4l-1.2,0.7l0,1.8l0.3,0.5l2.9,1.4l0.4,2.3l2.6,4.2l-0.5,0.9h-0.7l-0.3,0.3l0,0.8l0,0l-1.4,0l-2,0.8l-1.5,0.1
	l-1.1-1.6l-1.3,0.1l-0.5-0.3l-0.5-2.1l-0.6-0.8l-0.4-0.2l-1.6,0.2l-1.7-0.7l-0.6,0.3l-1.1-1.5l-1.9-1.4l-0.7-1.1l0.7-0.4l0,0.9
	l0.2-0.2l0,0.4l0.2-1.1l0.5,1l-0.3-1.2l0.4-0.3l2.6-0.6l2.7,0.2l-1-0.6l-1.7-0.3l0.8-0.5l0.5-1.5l-0.4-5.7L386.5,387.8z"/>
</svg>
