<?xml version="1.0" encoding="utf-8"?>
<!-- Generator: Adobe Illustrator 27.9.0, SVG Export Plug-In . SVG Version: 6.00 Build 0)  -->
<svg version="1.1"
	 id="Layer_1" xmlns:mapsvg="http://mapsvg.com" xmlns:rdf="http://www.w3.org/1999/02/22-rdf-syntax-ns#" xmlns:svg="http://www.w3.org/2000/svg" xmlns:dc="http://purl.org/dc/elements/1.1/" mapsvg:geoViewBox="22.138577 52.380834 40.220623 44.387017"
	 xmlns="http://www.w3.org/2000/svg" xmlns:xlink="http://www.w3.org/1999/xlink" x="0px" y="0px" viewBox="0 0 612.5 408"
	 style="enable-background:new 0 0 612.5 408;" xml:space="preserve">
<path id="UA-23" d="M406.5,257.8l2.9-0.7l3.2-1.4l4.3-0.5l5.2-1.7l2.1,0.1l2.3,0.9l4.7,1.1l1.6-0.1l1.3-0.6l0.3-0.8l-0.3-1l-0.8,0.1
	l0.4-0.5l-0.8-0.4l0.4-0.2l0-0.5l0.2,0.3l0.3-0.5l-0.4-1.7l-0.5,0l-0.3-1.8l1.1-0.3l-0.2-1.7l0.8-0.1l-0.1-1.3l0.3-0.1l-0.2-1.3
	l-2.2,0.4l-0.5-3l0.8-0.6l-0.1-1.1l-0.9,0l-0.3-1.4l-1.5,0.7l-0.5-2.6l1.7-0.2l-0.1-0.6l0.8-0.3l0.2,0.6l1.2-0.3l-0.4-2.5l-1.2,0.1
	l-0.3-1.6l-0.4,0l-0.2-1.8l1.2-0.3l-0.7-3.9l0.8,0l0.1,0.3l1.2-0.2l0,2l2.3-0.3l0.2,0.3l1.5-0.4l0.8-1.2l1.4-0.5l2.4,0.1l1.7-0.7
	l0.9,0.4l1.5-0.5l1.5,1.1l6.1,1.4l0.1,0.9l6.2-3.2l1.3,2.2l2.2-0.2l0.3,1.6l5.1-1.3l0.6,0.4l0,0.4l-0.5,0.3l0,0.6l0.3-0.2l0.2,0.2
	l-0.4,0.6l2.6-0.6l0.4,1.8l-1.1,0.4l0.2,0.6l0.7,0.2l0.3,1.4l-0.7,0.4l0,0.3l0.7-0.2l0.4,1.8l0.8-0.5l0.4,0.6l-0.4,0.3l0.6,1
	l-0.4,1.9h-1.5l0.1,0.9l2.7,0l1.3-0.6l-0.3,1l0.4,0.3l2.3,0l0.4,0.8l1.7-0.2l0-1l1.6,0.1l0.1,0.4l2.8,0.3l2.1-0.3l0.1-0.4l2-0.5l0,0
	l0.6-0.1l0.1,0.5l-0.3,1.2l-0.4,0.1l0,1.6l2.8-0.4l0.5,3.3l0.5,0l0.4,2.4l2.6-0.3l-0.6,1l-0.7-0.2l-0.1,0.3l-1.1,0.2l0.2,1.4
	l1.3-0.2l0,0.5l-0.7,0.1l0.1,0.7l0.6,0.3l2.2-1.1l2.2,3.8l1.8-1.4l0.7,1l0.5-0.4l0.7,1.2l0.7-0.7l1.8,3.1l0.2-0.2l2.4,2.1l0.8-1.5
	l0.5,0.2l-0.1,0.5l1.8,0.1l-0.1,1.6l-0.3,0l-1.3,3.2l0.3,0.9l-1.3,0.7l-0.9-1.9l-1,0.2l0.5,1.8l-1.4,0.9l0.1,0.4l-1.5,0.6l-0.4-0.7
	l-2.7,0.2l-0.2-0.5l-0.6,0.1l1.2,5.8l-2.6-0.2l0.1,0.3l-1.2,0.1l1.2,1.4l0.4-0.1l0.3,0.5l0.4-0.4l0.1,0.6l0.4-0.3l0.1,0.4l0.3-0.1
	l1.2,1.7l0.6-0.2l0.4,1.9l-0.9,0.5l3.2,1.5l0.7-0.5l0.8,0.9l-1.2,1.6l1.7,1.3l-1.4,0.8l-0.2-0.2l-2.4,2l1.4,2.2l0,0l-1,0.7l-1.5,0.3
	l-2.8,2.4l-1.4,2.6l-1.5,3.9l-1.9,2.5l-0.7,0l1-0.7l0.2-0.7l1.4-1.3l0.3-0.7l-0.7-1.5l-1.3-1.3l-1.9-1.1l-3.5,0.1l-1.4,0.8l-5.3,1.8
	l-1.3,0.9l-2.4,2.9l-3.6,6.2l-0.9,1l-0.7-0.2l-1.2,0.7l-0.3,0l0.1-0.5l0.5,0.2l0.6-0.4l0.4-1l0.6,0l1.4-1.1l1.4-2.5l0-1.5l-0.9-1.3
	l-1.6-0.9l-1.2,0.1l-1.5,0.6l-2.9-0.5l-3.2,0.4l-1.8,0.8l-4.9,2.9l-4.5,4.9l-4.9,2.4l-3.1,4.1l-6.1,10.2l-1.9,1.5l-4.5,1.6v-1.2
	l1.5-1.1l-0.1-0.6l1-0.5l2.6-0.5l2.6-1.2l0.3-1.6l2.3-3.2l0.3-1.4l0.7-0.1l1.3-2l-0.3-0.2l-0.5,0.3l-0.5,1.1l-0.6-1l-1.2-0.1
	l-0.4-2.2l0.6-0.9l0-0.8l-0.3-0.5l-1.7-0.6l-0.7-1.2l-0.4-0.1l0.3-1l-1,0.6l0.7,2.2l0.8,0.7l0.1,2.1l-0.7,1.2l-2,1.3l-0.9,2l0,0
	l-1,0.1l-0.6-8.9l-1.1,0.1l-2.6-1.6l-1.8,0.3l-0.3-1.5l0.5-0.1l-0.2-1.3l-4.5,0.7l-0.3-1.5l-0.9,0l-0.3-1.8l1.4-0.4l-0.3-2.8
	l-2.1,0.3l-0.1-0.7l-1.6,0.2l-0.3-1.8l1.1-0.2l-0.1-0.6l2.7-0.4l0-0.4l0.5,0l0-1.1l0.5,0l-0.3-2.1l2-0.3l-0.4-2.7l-1.7,0.1l-0.6-4.1
	l-1.6,0.3l-0.1-1l-2.1,0.3l-0.1-1l-0.6,0l-0.3-1.5l-0.8,0.1l-0.5-4.2l-1.1,0.1l-1-7l1.3-0.2l-0.1-0.8l-0.3-0.8l-1,0.1L418,266
	l1.1-0.3l0.1-0.8l-3.4,0.7l0.1,1.1l-0.7,0.1l0.1,0.5l-0.9,0.2l-0.6-0.5l-1,0.1l-0.8,0.8l-0.5-0.4l-0.7-4l-0.5,0l-0.6-3.6l-0.6-0.6
	L406.5,257.8L406.5,257.8z"/>
</svg>
